<svg xmlns="http://www.w3.org/2000/svg" viewBox="0 0 1200.000000 1200.000000" fill="currentColor">
<g transform="translate(0.000000,1200.000000) scale(0.100000,-0.100000)"
stroke="none">
<path d="M5730 10993 c-322 -15 -752 -87 -1090 -182 -1144 -322 -2167 -1075
-2823 -2077 -443 -677 -701 -1406 -794 -2244 -24 -220 -24 -762 1 -985 114
-1039 502 -1950 1164 -2735 124 -147 413 -438 562 -565 941 -806 2146 -1235
3375 -1202 1154 32 2221 439 3105 1185 147 124 438 413 565 562 594 693 985
1528 1135 2424 52 313 64 460 64 826 0 366 -12 513 -64 826 -228 1361 -1014
2571 -2170 3339 -897 596 -1934 879 -3030 828z m715 -1017 c936 -113 1742
-502 2390 -1152 951 -954 1353 -2314 1079 -3649 -242 -1180 -1026 -2200 -2109
-2745 -440 -222 -849 -343 -1365 -406 -178 -22 -665 -25 -835 -6 -185 21 -413
61 -561 97 -1128 277 -2074 1025 -2604 2058 -226 439 -362 900 -421 1427 -17
149 -18 649 -1 795 21 186 61 413 98 565 330 1344 1342 2429 2658 2849 309 99
586 151 986 185 102 9 562 -4 685 -18z"/>
<path d="M5845 8994 c-16 -2 -70 -9 -120 -15 -237 -29 -510 -124 -730 -254
-448 -263 -785 -700 -920 -1191 -73 -265 -70 -203 -70 -1534 0 -1112 1 -1203
18 -1304 72 -427 268 -810 567 -1107 304 -303 672 -491 1105 -566 139 -23 471
-23 610 0 941 162 1632 922 1691 1865 l7 112 -500 0 -500 0 -7 -79 c-15 -181
-91 -386 -194 -521 -139 -183 -324 -307 -547 -367 -88 -23 -119 -26 -255 -26
-136 0 -167 3 -254 26 -355 95 -615 355 -713 712 l-28 100 0 1155 0 1155 27
96 c77 280 247 498 491 629 505 273 1144 62 1384 -457 43 -93 80 -238 89 -344
l7 -79 500 0 500 0 -7 110 c-38 629 -369 1204 -896 1557 -228 152 -508 262
-790 308 -91 15 -402 28 -465 19z"/>
</g>
</svg>
