<svg xmlns="http://www.w3.org/2000/svg" viewBox="5.5 -3.5 64 64">
<circle  fill="transparent" cx="37.5" cy="28.5" r="28.836"/>
<path d="M37.5-3.5c8.951,0,16.572,3.125,22.857,9.372c3.008,3.009,5.295,6.448,6.857,10.314c1.561,3.867,2.344,7.971,2.344,12.314c0,4.381-0.773,8.486-2.314,12.313c-1.543,3.828-3.82,7.21-6.828,10.143c-3.123,3.085-6.666,5.448-10.629,7.086c-3.961,1.638-8.057,2.457-12.285,2.457s-8.276-0.808-12.143-2.429c-3.866-1.618-7.333-3.961-10.4-7.027c-3.067-3.066-5.4-6.524-7-10.372S5.5,32.767,5.5,28.5c0-4.229,0.809-8.295,2.428-12.2c1.619-3.905,3.972-7.4,7.057-10.486C21.08-0.394,28.565-3.5,37.5-3.5z M37.5,2.272c-7.314,0-13.467,2.553-18.458,7.657c-2.515,2.553-4.448,5.419-5.8,8.6c-1.354,3.181-2.029,6.505-2.029,9.972c0,3.429,0.675,6.734,2.029,9.913c1.353,3.183,3.285,6.021,5.8,8.516c2.514,2.496,5.351,4.399,8.515,5.715c3.161,1.314,6.476,1.971,9.943,1.971c3.428,0,6.75-0.665,9.973-1.999c3.219-1.335,6.121-3.257,8.713-5.771c4.99-4.876,7.484-10.99,7.484-18.344c0-3.543-0.648-6.895-1.943-10.057c-1.293-3.162-3.18-5.98-5.654-8.458C50.984,4.844,44.795,2.272,37.5,2.272z"/>
<g transform="translate(-0.9,66.9) scale(0.08)">
<path d="M400-320h160q17 0 28.5-11.5T600-360v-80h-80v40h-80v-160h80v40h80v-80q0-17-11.5-28.5T560-640H400q-17 0-28.5 11.5T360-600v240q0 17 11.5 28.5T400-320Z"/>
</g>
</svg>
