<?xml version="1.0" standalone="no"?>
<!DOCTYPE svg PUBLIC "-//W3C//DTD SVG 20010904//EN"
 "http://www.w3.org/TR/2001/REC-SVG-20010904/DTD/svg10.dtd">
<svg version="1.0" xmlns="http://www.w3.org/2000/svg"
 width="1200.000000pt" height="1200.000000pt" viewBox="0 0 1200.000000 1200.000000"
 preserveAspectRatio="xMidYMid meet">

<g transform="translate(0.000000,1200.000000) scale(0.100000,-0.100000)"
fill="#000000" stroke="none">
<path d="M5730 10993 c-134 -6 -391 -35 -556 -63 -896 -150 -1741 -547 -2430
-1139 -145 -126 -436 -418 -556 -561 -590 -699 -969 -1513 -1118 -2405 -52
-312 -64 -459 -64 -825 0 -359 10 -497 60 -800 146 -904 545 -1761 1143 -2456
120 -139 404 -421 545 -543 353 -303 769 -567 1196 -759 1537 -692 3307 -564
4732 341 160 101 428 301 574 426 151 131 429 411 555 561 662 783 1051 1697
1165 2735 25 225 25 765 0 990 -102 933 -422 1755 -966 2484 -167 223 -278
351 -494 566 -257 255 -489 445 -771 631 -898 590 -1925 868 -3015 817z m715
-1017 c288 -35 544 -90 795 -171 703 -227 1350 -663 1823 -1228 791 -946 1102
-2186 851 -3402 -243 -1181 -1026 -2201 -2109 -2745 -440 -222 -849 -343
-1365 -406 -178 -22 -665 -25 -835 -6 -185 21 -413 61 -561 97 -1446 356
-2574 1482 -2928 2925 -80 326 -111 592 -111 960 0 297 8 394 51 660 233 1451
1278 2674 2679 3136 330 109 607 162 1025 198 102 9 562 -4 685 -18z"/>
<path d="M4590 7994 c-339 -41 -626 -152 -876 -339 -380 -285 -624 -690 -696
-1155 -18 -118 -18 -881 0 -1000 44 -287 160 -564 332 -792 542 -718 1504
-915 2283 -469 39 23 93 58 120 77 l47 34 -300 400 -301 401 -45 -31 c-114
-79 -236 -114 -404 -114 -102 -1 -140 4 -205 22 -208 60 -372 196 -466 387
-72 147 -74 163 -74 585 0 422 2 438 74 585 94 191 258 327 466 387 65 18 103
23 205 22 168 0 290 -35 404 -114 l45 -31 301 400 300 400 -33 25 c-189 141
-455 252 -732 302 -78 15 -375 26 -445 18z"/>
<path d="M7605 7994 c-16 -2 -66 -9 -110 -15 -262 -34 -557 -157 -780 -324
-406 -304 -656 -744 -706 -1243 -17 -167 -6 -844 15 -955 70 -366 232 -676
488 -935 260 -262 593 -436 958 -499 120 -21 432 -24 540 -4 289 51 564 163
757 307 l32 25 -42 57 c-23 31 -158 211 -300 400 l-257 342 -53 -35 c-159
-105 -396 -142 -592 -91 -203 54 -382 201 -476 391 -72 147 -74 163 -74 585 0
422 2 438 74 585 94 190 273 337 476 391 196 51 433 14 592 -91 l53 -35 257
342 c142 189 277 369 300 400 l42 57 -32 25 c-189 141 -456 252 -732 302 -78
15 -370 27 -430 18z"/>
</g>
</svg>
