<svg xmlns="http://www.w3.org/2000/svg" viewBox="0 0 64 64">
<circle fill="transparent" cx="32.064" cy="31.788" r="29.013"/>
<path d="M31.944,0C40.896,0,48.477,3.105,54.688,9.314C60.895,15.486,64.001,23.046,64.001,32s-3.049,16.457-9.146,22.514C48.418,60.838,40.779,64,31.943,64c-8.649,0-16.153-3.143-22.514-9.43C3.144,48.286,0,40.762,0,32.001c0-8.724,3.144-16.285,9.429-22.685C15.64,3.105,23.145,0,31.944,0z M32.061,5.771c-7.275,0-13.43,2.571-18.459,7.715C8.382,18.783,5.773,24.954,5.773,32c0,7.125,2.59,13.257,7.77,18.4c5.181,5.182,11.352,7.771,18.516,7.771c7.123,0,13.332-2.608,18.627-7.828C55.714,45.467,58.229,39.354,58.229,32c0-7.313-2.554-13.484-7.656-18.514C45.505,8.342,39.334,5.771,32.061,5.771z M44.117,24.456v5.485H20.86v-5.485H44.117z M44.117,34.743v5.481H20.86v-5.481H44.117z"/>
</svg>
