<svg xmlns="http://www.w3.org/2000/svg" xmlns:xlink="http://www.w3.org/1999/xlink" preserveAspectRatio="none" viewBox="0 0 512 512"><defs><path id="a" fill="#A6DB93" d="M512.7 256.2q0-106.1-75-181-75-75-181.1-75-106.2 0-181.2 75V75Q.5 150 .5 256.3q0 106.1 74.9 181 75 74.8 181.2 74.8 106 0 181.1-74.8 75-74.9 75-181Z"/><path id="b" fill="#38785F" d="M744.9 291.1q0-22.4-8.7-42.8-8.4-19.8-23.6-35-15.3-15.3-35-23.7-20.5-8.6-42.9-8.6-22.3 0-42.8 8.7-19.7 8.3-35 23.6-15.2 15.3-23.5 35-8.8 20.4-8.8 42.8V409q0 22.3 8.8 42.8 8.3 19.7 23.6 35 15.2 15.3 35 23.6 20.4 8.6 42.8 8.6 22.3 0 42.8-8.6 19.7-8.3 35-23.6t23.6-35q2.5-6 4.3-12.1 4.4-14.9 4.4-30.7V291.1m-14.1-29.9q3.8 12.2 4.4 25.2h-17.3v-.1q-.5-9.9-3.4-19.2l16.3-5.9m-29.3-19.9 13.3-11.1q7.9 10.4 12.7 22l-16.2 6q-3.9-9-9.8-16.9M689 206.5q10.9 7 19.6 16.4L695.3 234q-6.8-7.2-14.8-12.6l8.5-14.9m-25.5 16.6q13.2 5.6 23.4 15.8 10.3 10.3 15.9 23.5 5.8 13.7 5.8 28.7v23.3q-18.8.6-35.5 9-5.8 3-11.3 7 4.3-13 4.3-26.4 0-18-7.4-34.4T638 241.2l-3.1-2.8-3.2 2.8q-13.5 12-20.9 28.4-7.3 16.4-7.3 34.3 0 13.7 4.3 26.6-5.6-4.1-11.3-7-16.7-8.6-35.4-9.1V291q0-15 5.8-28.7 5.6-13.2 15.8-23.4 10.3-10.3 23.4-15.9 13.8-5.8 28.8-5.8t28.7 5.8m8.7-6.4q-8.8-4.4-18.3-6.7l3-17q12.6 2.8 24 8.8l-8.7 14.9m39 107.1q8.3 0 16.3 1.8L643 368.7q5.2-11.8 14-21.3 8.9-9.5 20.5-15.4 16-8.2 33.8-8.2m-54.7-19.9q0 13-4.5 25.3-4.4 12.2-12.6 22.2v-94.8q8.3 10 12.7 22.1 4.4 12.3 4.4 25.3m45.1 75.3q3.4-1.8 6.8-4V409q0 8.7-2 17.3-15.1-9.2-32-14.2-17-5-35-5.7V385q11.8 3.5 24.1 3.5 20.1 0 38.1-9.2m16.1-23.9q-8.8 9.5-20.4 15.5-16 8.1-33.8 8.1-8.2 0-16.2-1.8l84.4-43.1q-5.1 11.8-14 21.3m17.6-37.6q-8.6-2.6-17.3-3.3V296h17.3v21.9M718 368.3q10.3-8.9 17.3-20.4v61q0 18-6.2 34.7-6.5-6.2-14.3-11.8 3.2-11.2 3.2-22.9v-40.6M652 456.2q16.9 2.9 32 11 11 6 20.3 14.4l-4.7 4.1-7.6 5.9q-6.8 4.8-14.2 8.3l-9.8 4q-16.1 5.7-33.3 5.7-17 0-33.1-5.7l-9.9-4q-7.5-3.6-14.2-8.3l-7.6-5.9q-2.4-2-4.6-4.1 12.4-11.3 28-18.2 19.8-8.6 41.5-8.6 8.5 0 17.2 1.4m58.9 18.4q-13.1-11.9-29.4-19.2-20-9.1-42-10v-16H630v16q-22 .9-42 10-16.3 7.4-29.3 19.3v-.1l-6-7.6q-4.8-6.8-8.4-14.1 11-10.7 23.9-18.5 12.8-7.8 27.1-12.4 16.9-5.4 34.7-6h9.5q24.3.9 46.3 10.4 22 9.5 39.4 26.6-3.6 7.3-8.4 14l-6 7.6m-76-284.1q6.3 0 12.7.8l-3 17q-4.9-.6-9.7-.6-4.6 0-9.8.7l-3-17q6.5-.9 12.8-.9m-37.5 26.2-8.6-15q11.3-5.8 24-8.7l3 17q-9.6 2.3-18.4 6.7m-8.3 4.8q-8.3 5.5-14.9 12.6L561 222.9q8.6-9.3 19.5-16.4l8.6 15m28.4 57.2q4.4-12.1 12.6-22.1v94.8q-8.3-10-12.6-22.2-4.5-12.3-4.5-25.3 0-12.9 4.5-25.2m-59.1-20.5-16.3-6q4.9-11.6 12.8-22l13.2 11.1q-5.9 7.9-9.8 16.9m-19.5 3 16.3 5.9q-2.9 9.4-3.4 19.3h-17.3q.6-13 4.5-25.2m-4.6 34.7h17.3v18.7q-8.7.6-17.3 3.2v-22m7.8 29.8q8-1.8 16.3-1.8 17.8 0 33.8 8.1 11.5 6 20.4 15.5 8.9 9.5 14 21.4L542 325.6m-7.9 22.3h.1q7 11.6 17.3 20.4V409q0 11.6 3.1 22.9-7.9 5.6-14.3 11.7-6.1-16.8-6.1-34.6v-61.1m17.5 7.5q-8.9-9.4-14-21.3l84.4 43.1q-8 1.8-16.1 1.8-17.9 0-33.9-8.1-11.6-6-20.4-15.5m16.1 23.9q18 9.2 38.2 9.2 12.3 0 24-3.5v21.4q-18 .7-35 5.7-16.9 5-32 14.2-2-8.6-2-17.3v-33.6q3.1 2 6.8 3.9Z"/><path id="c" fill="#38785F" d="M390 230.8q-8.6 0-14.8 6.1-6.1 6.2-6.1 14.8 0 8.8 6.1 14.9 6.2 6.1 14.9 6.1 8.6 0 14.8-6.1 6.1-6.2 6.1-14.9 0-8.6-6.1-14.8-6.1-6.1-14.8-6.1Z"/><path id="d" fill="#38785F" d="M139.6 230.8q-8.7 0-14.8 6.2-6.1 6.1-6.1 14.8 0 8.6 6.1 14.8 6.1 6.1 14.8 6.1 8.7 0 14.8-6.1 6.1-6.2 6.1-14.8 0-8.7-6.1-14.8-6.2-6.2-14.8-6.2Z"/><path id="e" fill="#A6DB93" d="M36.4-36.5q-15-15-36.4-15-21.3 0-36.4 15-15 15.1-15 36.5 0 21.3 15 36.4 15.1 15 36.4 15 21.4 0 36.4-15 15-15.1 15-36.4 0-21.4-15-36.5Z"/><path id="g" fill="#38785F" d="m-22.2.3 10.8 18.8h22.6L22.1.3 11-19h-22L-22.2.3Z"/><path id="f" fill="none" stroke="#38785F" stroke-linecap="square" stroke-linejoin="bevel" stroke-width="9.5" d="M51.5 0q0 21.3-15.1 36.4-15 15-36.4 15-21.3 0-36.4-15-15-15.1-15-36.4 0-21.4 15-36.5 15.1-15 36.4-15 21.4 0 36.4 15 15 15.1 15 36.5Z"/><path id="h" fill="none" stroke="#38785F" stroke-linecap="butt" stroke-linejoin="miter" stroke-miterlimit="3" stroke-width="9.5" d="M7.5-51-11-19H48m-7.6 51L22.2.3l-11 18.7L-7.6 51M11-19 22.3.4M-48 19.1h36.6L-22 .3l-18.4-32m18.4 32L-11-19m22.1 38.2h-22.5"/></defs><use xlink:href="#a"/><use xlink:href="#b" transform="matrix(1.396 0 0 1.396 -629.2 -232.4)"/><use xlink:href="#c" transform="matrix(.58 0 0 .58 102.2 20.1)"/><use xlink:href="#d" transform="matrix(.58 0 0 .58 103.9 20.1)"/><g transform="matrix(1.396 0 0 1.396 256.6 413)"><use xlink:href="#e"/><use xlink:href="#f"/></g><use xlink:href="#g" transform="matrix(1.396 0 0 1.396 256.6 413)"/><use xlink:href="#h" transform="matrix(1.396 0 0 1.396 256.6 413)"/></svg>
