<svg xmlns="http://www.w3.org/2000/svg" xml:space="preserve" style="fill-rule:evenodd;clip-rule:evenodd;stroke-linecap:square;stroke-linejoin:bevel" viewBox="0 0 500 500"><path d="M500 250c0-69-24.4-128-73.3-176.8A241.1 241.1 0 0 0 250 0C181 0 122 24.4 73.1 73.2A241 241 0 0 0 0 250c0 69 24.4 128 73.1 176.7A241.1 241.1 0 0 0 250 500c69 0 128-24.4 176.8-73.2A240.6 240.6 0 0 0 500 250.1Z" style="fill:#a6db93;fill-rule:nonzero" transform="matrix(.96 0 0 .96 9 9)"/><path d="M500 250c0 69.1-24.4 128-73.3 176.8A241.1 241.1 0 0 1 250 500c-69 0-128-24.4-176.8-73.2A240.9 240.9 0 0 1 0 250.1 241 241 0 0 1 73.1 73 241.1 241.1 0 0 1 250 0c69 0 128 24.4 176.8 73.2A240.8 240.8 0 0 1 500 250Zm-15.8 0c0-64.7-22.9-120-68.6-165.7a225.9 225.9 0 0 0-165.7-68.5A225.9 225.9 0 0 0 84.3 84.3a225.9 225.9 0 0 0-68.5 165.8c0 64.7 22.8 119.9 68.5 165.6a225.9 225.9 0 0 0 165.6 68.5c64.7 0 119.9-22.8 165.7-68.5A225.4 225.4 0 0 0 484.2 250Z" style="fill:#38785f"/><path d="M390.6 174.7a139 139 0 0 0-41.2-99.4A139.6 139.6 0 0 0 250 34.1a138.8 138.8 0 0 0-99.3 41.2 139.5 139.5 0 0 0-41.2 99.4v150.6A140.2 140.2 0 0 0 250 465.9a138.7 138.7 0 0 0 99.4-41.2 140.2 140.2 0 0 0 41.2-99.4V174.7m-18-38.2c3.3 10.4 5.1 21 5.6 32.1h-22a105 105 0 0 0-4.3-24.5l20.7-7.6m-37.4-25.4 17-14.2c6.7 8.9 12 18.3 16.2 28.2l-20.7 7.6c-3.3-7.7-7.4-14.9-12.5-21.6m-15.9-44.4a129 129 0 0 1 25 20.9l-17 14.2a108 108 0 0 0-19-16l11-19.1m-32.6 21.2a92.8 92.8 0 0 1 29.9 20.2 92.9 92.9 0 0 1 27.6 66.6v29.7a105.9 105.9 0 0 0-59.6 20.6A107.2 107.2 0 0 0 254 111l-4-3.5-4 3.5a106.5 106.5 0 0 0-30.6 114 106 106 0 0 0-59.7-20.6v-29.7a93.1 93.1 0 0 1 27.7-66.6 93.7 93.7 0 0 1 103.2-20.2m11.1-8.2c-7.5-3.8-15.2-6.7-23.3-8.6l3.7-21.7c10.8 2.4 21 6.2 30.7 11.2l-11 19m49.8 136.9c7 0 13.8.7 20.7 2.3l-107.8 55a94.5 94.5 0 0 1 44-47c13.6-6.9 28-10.3 43-10.3M278 191a93.8 93.8 0 0 1-21.7 60.6v-121a94.1 94.1 0 0 1 21.7 60.4m57.7 96.3c2.8-1.5 5.7-3.2 8.6-5v42.9a95 95 0 0 1-2.6 22 171.9 171.9 0 0 0-85.4-25.3v-27.4a106.9 106.9 0 0 0 79.4-7.2m20.5-30.6a95.3 95.3 0 0 1-69.2 30.2c-7 0-14-.8-20.7-2.3l107.7-55.1a95.2 95.2 0 0 1-17.8 27.2m22.3-48a108 108 0 0 0-22-4.1v-24h22v28.1m-22 64.5a108 108 0 0 0 22-26.1v78c0 15.3-2.6 30-7.8 44.2a171.2 171.2 0 0 0-18.3-15 106 106 0 0 0 4.1-29.2v-51.9m-84.3 112.3a130.6 130.6 0 0 1 66.7 32.4l-6 5.3-9.7 7.5c-5.8 4-11.8 7.6-18.1 10.5l-12.6 5.2a127 127 0 0 1-84.7 0l-12.5-5.2c-6.4-3-12.5-6.5-18.2-10.5l-9.7-7.5-6-5.3a131.4 131.4 0 0 1 110.8-32.4m75 23.5a142.2 142.2 0 0 0-91-37.4v-20.3H244v20.4a142.7 142.7 0 0 0-91 37.3h-.1l-7.6-9.7c-4-5.8-7.7-11.8-10.7-18a168.5 168.5 0 0 1 65-39.5c14.5-4.6 29.2-7.2 44.4-7.7h12.2a161.8 161.8 0 0 1 109.3 47.2c-3 6.2-6.7 12.2-10.7 18l-7.6 9.7M250 46.2c5.4 0 10.8.4 16.2 1.1L262.5 69a100.9 100.9 0 0 0-25 0l-3.7-21.7c5.4-.7 10.9-1 16.3-1m-47.9 33.4-11-19.1c9.7-5 19.9-8.8 30.6-11.2l3.9 21.7c-8.2 2-16 4.8-23.5 8.6m-10.5 6.1c-7 4.7-13.4 10-19 16l-17-14.2c7.4-8 15.7-15 25-21l11 19.2m36.1 73a95 95 0 0 1 16.2-28.2v121a95 95 0 0 1-16.2-92.7m-75.4-26.2-20.8-7.6c4.2-10 9.7-19.4 16.4-28.2l16.8 14.2c-5 6.7-9 14-12.4 21.6m-24.9 3.8 20.7 7.6c-2.4 8-3.8 16.2-4.3 24.5h-22c.4-11 2.3-21.6 5.6-32m-5.8 44.2h22v23.9c-7.3.6-14.7 2-22 4.1v-28m10 38a93.8 93.8 0 0 1 63.8 8 95.3 95.3 0 0 1 44 47l-107.8-55m-10 28.4c6 9.9 13.2 18.6 22 26.1v52c0 10 1.4 19.6 4.1 29.2-6.7 4.8-12.8 9.8-18.3 15-5.3-14.3-7.9-29-7.9-44.2v-78.1m22.4 9.6a93.4 93.4 0 0 1-17.8-27.2l107.7 55a93.5 93.5 0 0 1-63.8-8 94 94 0 0 1-26-19.8m20.5 30.6a105.5 105.5 0 0 0 79.4 7.2V322a176.6 176.6 0 0 0-85.5 25.4 95 95 0 0 1-2.7-22.1v-43c2.8 1.8 5.7 3.5 8.8 5Z" style="fill:#38785f;fill-rule:nonzero"/><path d="M315.8 156.6c-3 0-5.7 1.1-7.9 3.3a10.7 10.7 0 0 0-3.3 7.9c0 3 1.1 5.7 3.3 7.8 2.2 2.2 4.8 3.3 7.9 3.3 3 0 5.7-1.1 7.8-3.3 2.2-2.2 3.3-4.8 3.3-7.8 0-3.1-1.1-5.7-3.3-7.9a10.7 10.7 0 0 0-7.8-3.3ZM184.4 156.7c-3 0-5.7 1-7.8 3.2a10.7 10.7 0 0 0-3.3 7.9c0 3 1 5.7 3.3 7.8 2.1 2.2 4.7 3.3 7.8 3.3 3 0 5.7-1 7.9-3.3 2.1-2.1 3.2-4.8 3.2-7.8s-1-5.7-3.2-7.9a10.7 10.7 0 0 0-7.9-3.2Z" style="fill:#38785f;fill-rule:nonzero"/><path d="M296.4 347A63.2 63.2 0 0 0 250 328a63.5 63.5 0 0 0-46.4 19.1 63.6 63.6 0 0 0-19.2 46.6c0 18.1 6.4 33.6 19.2 46.4a63.3 63.3 0 0 0 46.4 19.3 63 63 0 0 0 46.4-19.3 63.2 63.2 0 0 0 19.3-46.4c0-18.2-6.4-33.7-19.3-46.6Z" style="fill:#a6db93;fill-rule:nonzero"/><path d="M315.7 393.6c0 18.1-6.4 33.6-19.3 46.4a63 63 0 0 1-46.4 19.3 63.3 63.3 0 0 1-46.4-19.3 63.3 63.3 0 0 1-19.2-46.4c0-18.2 6.4-33.7 19.2-46.6A63.5 63.5 0 0 1 250 328c18.2 0 33.7 6.3 46.4 19.1a63.5 63.5 0 0 1 19.3 46.6Z" style="fill:none;fill-rule:nonzero;stroke:#38785f;stroke-width:12.13px"/><path d="m221.7 394 13.8 23.9h28.8l14-23.9-14.2-24.8H236l-14.3 24.7Z" style="fill:#38785f;fill-rule:nonzero"/><path d="m259.5 328.5-23.4 40.7h75.1m-9.6 65.2L278.4 394l-14 23.9-24 40.6m23.7-89.4 14.3 24.9M188.8 418h46.7l-13.7-24-23.5-41m23.5 41 14.3-24.8m28.2 48.8h-28.8" style="fill:none;fill-rule:nonzero;stroke:#38785f;stroke-width:12.13px;stroke-linecap:butt;stroke-linejoin:miter;stroke-miterlimit:3"/></svg>
